<svg width="150" height="50" viewBox="0 0 150 50" fill="none" xmlns="http://www.w3.org/2000/svg">
<mask id="path-1-inside-1_75_21" fill="white">
<path d="M27.5714 37.5L16.5428 25L27.5714 12.5"/>
</mask>
<path d="M24.572 40.1464C26.0335 41.8029 28.5612 41.961 30.2178 40.4994C31.8743 39.0379 32.0324 36.5102 30.5709 34.8536L24.572 40.1464ZM16.5428 25L13.5434 22.3536C12.2093 23.8657 12.2093 26.1343 13.5434 27.6464L16.5428 25ZM30.5709 15.1464C32.0324 13.4898 31.8743 10.9621 30.2178 9.50055C28.5612 8.039 26.0335 8.19708 24.572 9.85363L30.5709 15.1464ZM30.5709 34.8536L19.5423 22.3536L13.5434 27.6464L24.572 40.1464L30.5709 34.8536ZM19.5423 27.6464L30.5709 15.1464L24.572 9.85363L13.5434 22.3536L19.5423 27.6464Z" fill="#51A6A6" mask="url(#path-1-inside-1_75_21)"/>
<mask id="path-3-inside-2_75_21" fill="white">
<path d="M122.429 12.5L133.457 25L122.429 37.5"/>
</mask>
<path d="M125.428 9.85363C123.966 8.19708 121.439 8.039 119.782 9.50055C118.126 10.9621 117.968 13.4898 119.429 15.1464L125.428 9.85363ZM133.457 25L136.457 27.6464C137.791 26.1343 137.791 23.8657 136.457 22.3536L133.457 25ZM119.429 34.8536C117.968 36.5102 118.126 39.0379 119.782 40.4994C121.439 41.961 123.966 41.8029 125.428 40.1464L119.429 34.8536ZM119.429 15.1464L130.458 27.6464L136.457 22.3536L125.428 9.85363L119.429 15.1464ZM130.458 22.3536L119.429 34.8536L125.428 40.1464L136.457 27.6464L130.458 22.3536Z" fill="#165946" mask="url(#path-3-inside-2_75_21)"/>
<path d="M31.9618 14.134L32.1138 15.901L32.0378 15.749C32.3292 15.1537 32.7408 14.685 33.2728 14.343C33.8175 14.001 34.4382 13.83 35.1348 13.83C35.5782 13.83 35.9708 13.8997 36.3128 14.039C36.6548 14.1783 36.9335 14.381 37.1488 14.647C37.3768 14.9003 37.5225 15.217 37.5858 15.597L37.4908 15.654C37.7948 15.084 38.2128 14.6407 38.7448 14.324C39.2895 13.9947 39.8595 13.83 40.4548 13.83C41.2275 13.83 41.8355 14.0517 42.2788 14.495C42.7348 14.9257 42.9692 15.4893 42.9818 16.186V22H41.2148V16.813C41.2022 16.4077 41.1008 16.072 40.9108 15.806C40.7335 15.5273 40.4168 15.3753 39.9608 15.35C39.5048 15.35 39.0932 15.4893 38.7258 15.768C38.3712 16.0467 38.0925 16.4077 37.8898 16.851C37.6872 17.2817 37.5795 17.7503 37.5668 18.257V22H35.7998V16.813C35.7872 16.4077 35.6795 16.072 35.4768 15.806C35.2868 15.5273 34.9638 15.3753 34.5078 15.35C34.0392 15.35 33.6275 15.4893 33.2728 15.768C32.9182 16.0467 32.6395 16.4077 32.4368 16.851C32.2468 17.2943 32.1518 17.7693 32.1518 18.276V22H30.3848V14.134H31.9618ZM49.3316 22.19C48.5969 22.19 47.9256 22.0317 47.3176 21.715C46.7222 21.3983 46.2472 20.936 45.8926 20.328C45.5506 19.7073 45.3796 18.9537 45.3796 18.067C45.3796 17.193 45.5632 16.4393 45.9306 15.806C46.2979 15.16 46.7856 14.666 47.3936 14.324C48.0142 13.982 48.6919 13.811 49.4266 13.811C50.1612 13.811 50.7819 13.982 51.2886 14.324C51.7952 14.6533 52.1816 15.046 52.4476 15.502L52.3336 15.806L52.5046 14.134H54.1386V22H52.3716V19.948L52.5616 20.404C52.5109 20.5307 52.3969 20.6953 52.2196 20.898C52.0549 21.088 51.8269 21.2843 51.5356 21.487C51.2569 21.6897 50.9339 21.8607 50.5666 22C50.1992 22.1267 49.7876 22.19 49.3316 22.19ZM49.8066 20.727C50.2499 20.727 50.6489 20.6447 51.0036 20.48C51.3582 20.3153 51.6496 20.0873 51.8776 19.796C52.1182 19.492 52.2829 19.131 52.3716 18.713V17.174C52.2702 16.794 52.0929 16.4647 51.8396 16.186C51.5862 15.8947 51.2822 15.673 50.9276 15.521C50.5729 15.3563 50.1802 15.274 49.7496 15.274C49.2809 15.274 48.8502 15.388 48.4576 15.616C48.0649 15.844 47.7482 16.1607 47.5076 16.566C47.2796 16.9713 47.1656 17.4463 47.1656 17.991C47.1656 18.4977 47.2859 18.96 47.5266 19.378C47.7672 19.796 48.0902 20.1253 48.4956 20.366C48.9009 20.6067 49.3379 20.727 49.8066 20.727ZM57.1964 22V7.294H58.9254V15.958L58.8874 15.635C59.1534 15.1157 59.5587 14.685 60.1034 14.343C60.6607 14.001 61.313 13.83 62.0604 13.83C62.8077 13.83 63.4157 14.0517 63.8844 14.495C64.3657 14.9257 64.6127 15.4893 64.6254 16.186V22H62.8394V16.813C62.8267 16.3823 62.7 16.034 62.4594 15.768C62.2314 15.4893 61.8704 15.35 61.3764 15.35C60.9204 15.35 60.5087 15.483 60.1414 15.749C59.774 16.0023 59.4827 16.3507 59.2674 16.794C59.0647 17.2373 58.9634 17.744 58.9634 18.314V22H57.1964ZM69.2753 14.134L69.4273 15.901L69.3513 15.749C69.6427 15.1537 70.0543 14.685 70.5863 14.343C71.131 14.001 71.7517 13.83 72.4483 13.83C72.8917 13.83 73.2843 13.8997 73.6263 14.039C73.9683 14.1783 74.247 14.381 74.4623 14.647C74.6903 14.9003 74.836 15.217 74.8993 15.597L74.8043 15.654C75.1083 15.084 75.5263 14.6407 76.0583 14.324C76.603 13.9947 77.173 13.83 77.7683 13.83C78.541 13.83 79.149 14.0517 79.5923 14.495C80.0483 14.9257 80.2827 15.4893 80.2953 16.186V22H78.5283V16.813C78.5157 16.4077 78.4143 16.072 78.2243 15.806C78.047 15.5273 77.7303 15.3753 77.2743 15.35C76.8183 15.35 76.4067 15.4893 76.0393 15.768C75.6847 16.0467 75.406 16.4077 75.2033 16.851C75.0007 17.2817 74.893 17.7503 74.8803 18.257V22H73.1133V16.813C73.1007 16.4077 72.993 16.072 72.7903 15.806C72.6003 15.5273 72.2773 15.3753 71.8213 15.35C71.3527 15.35 70.941 15.4893 70.5863 15.768C70.2317 16.0467 69.953 16.4077 69.7503 16.851C69.5603 17.2943 69.4653 17.7693 69.4653 18.276V22H67.6983V14.134H69.2753ZM85.866 22.304C85.1567 22.304 84.5677 22.0887 84.099 21.658C83.643 21.2147 83.4024 20.6447 83.377 19.948V14.134H85.144V19.321C85.1694 19.7517 85.2897 20.1 85.505 20.366C85.733 20.632 86.0877 20.7713 86.569 20.784C87.0124 20.784 87.405 20.6573 87.747 20.404C88.1017 20.138 88.3867 19.7833 88.602 19.34C88.8174 18.884 88.925 18.371 88.925 17.801V14.134H90.692V22H89.077L88.925 20.062L89.02 20.404C88.868 20.7713 88.6337 21.1007 88.317 21.392C88.013 21.6707 87.652 21.8923 87.234 22.057C86.816 22.2217 86.36 22.304 85.866 22.304ZM96.9411 22.19C96.2191 22.19 95.5604 22.019 94.9651 21.677C94.3824 21.3223 93.9201 20.8283 93.5781 20.195C93.2361 19.549 93.0651 18.808 93.0651 17.972C93.0651 17.098 93.2424 16.3507 93.5971 15.73C93.9644 15.1093 94.4584 14.6343 95.0791 14.305C95.6998 13.9757 96.3964 13.811 97.1691 13.811C97.7898 13.811 98.3788 13.944 98.9361 14.21C99.5061 14.476 99.9494 14.8433 100.266 15.312L100.19 15.939V7.294H101.938V22H100.171V20.043L100.361 20.537C99.9938 21.0183 99.5188 21.4173 98.9361 21.734C98.3534 22.038 97.6884 22.19 96.9411 22.19ZM97.4921 20.689C97.9608 20.689 98.3788 20.6067 98.7461 20.442C99.1134 20.2647 99.4174 20.024 99.6581 19.72C99.8988 19.416 100.07 19.055 100.171 18.637V17.155C100.07 16.775 99.8861 16.4457 99.6201 16.167C99.3668 15.8757 99.0564 15.6477 98.6891 15.483C98.3344 15.3057 97.9354 15.217 97.4921 15.217C97.0108 15.217 96.5674 15.3373 96.1621 15.578C95.7694 15.806 95.4528 16.1227 95.2121 16.528C94.9714 16.9333 94.8511 17.402 94.8511 17.934C94.8511 18.4533 94.9714 18.922 95.2121 19.34C95.4528 19.7453 95.7758 20.0747 96.1811 20.328C96.5864 20.5687 97.0234 20.689 97.4921 20.689ZM107.501 22.304C106.791 22.304 106.202 22.0887 105.734 21.658C105.278 21.2147 105.037 20.6447 105.012 19.948V14.134H106.779V19.321C106.804 19.7517 106.924 20.1 107.14 20.366C107.368 20.632 107.722 20.7713 108.204 20.784C108.647 20.784 109.04 20.6573 109.382 20.404C109.736 20.138 110.021 19.7833 110.237 19.34C110.452 18.884 110.56 18.371 110.56 17.801V14.134H112.327V22H110.712L110.56 20.062L110.655 20.404C110.503 20.7713 110.268 21.1007 109.952 21.392C109.648 21.6707 109.287 21.8923 108.869 22.057C108.451 22.2217 107.995 22.304 107.501 22.304ZM116.961 14.134L117.132 16.414L117.037 16.11C117.24 15.6287 117.531 15.2233 117.911 14.894C118.304 14.552 118.709 14.2923 119.127 14.115C119.558 13.925 119.931 13.83 120.248 13.83L120.153 15.578C119.558 15.54 119.032 15.654 118.576 15.92C118.133 16.186 117.778 16.5407 117.512 16.984C117.259 17.4273 117.132 17.9023 117.132 18.409V22H115.384V14.134H116.961ZM34.4698 27.263C35.1665 27.263 35.8062 27.358 36.3888 27.548C36.9842 27.7253 37.4972 27.9977 37.9278 28.365C38.3712 28.7197 38.7132 29.163 38.9538 29.695C39.2072 30.2143 39.3338 30.8223 39.3338 31.519C39.3338 32.0637 39.2515 32.5957 39.0868 33.115C38.9348 33.6343 38.6752 34.1093 38.3078 34.54C37.9405 34.958 37.4592 35.3 36.8638 35.566C36.2812 35.8193 35.5592 35.946 34.6978 35.946H32.6648V41H30.8218V27.263H34.4698ZM34.6598 34.179C35.2045 34.179 35.6542 34.0967 36.0088 33.932C36.3762 33.7673 36.6612 33.5583 36.8638 33.305C37.0665 33.039 37.2122 32.754 37.3008 32.45C37.3895 32.146 37.4338 31.861 37.4338 31.595C37.4338 31.3163 37.3832 31.0313 37.2818 30.74C37.1932 30.436 37.0412 30.1573 36.8258 29.904C36.6232 29.6507 36.3508 29.4417 36.0088 29.277C35.6795 29.1123 35.2742 29.03 34.7928 29.03H32.6648V34.179H34.6598ZM36.9208 35.224L40.5118 41H38.3838L34.7358 35.281L36.9208 35.224ZM42.9283 41L48.9323 26.693H49.0463L55.0313 41H52.9223L48.4383 29.581L49.7493 28.726L44.7333 41H42.9283ZM46.4433 35.794H51.5543L52.1623 37.39H45.9113L46.4433 35.794ZM69.4365 27.263V41H67.6125V34.977H60.4115V41H58.5685V27.263H60.4115V33.229H67.6125V27.263H69.4365ZM74.3437 41V26.826H74.3627L81.5637 37.048L80.7847 36.896L87.9667 26.826H88.0047V41H86.1807V31.006L86.2947 31.937L81.1077 39.271H81.0697L75.8067 31.937L76.1297 31.082V41H74.3437ZM91.5341 41L97.5381 26.693H97.6521L103.637 41H101.528L97.0441 29.581L98.3551 28.726L93.3391 41H91.5341ZM95.0491 35.794H100.16L100.768 37.39H94.5171L95.0491 35.794ZM119.068 41.437L108.447 30.664L108.979 30.797L109.017 41H107.174V26.845H107.269L117.776 37.656L117.339 37.561L117.301 27.263H119.125V41.437H119.068Z" fill="#333333"/>
</svg>
